<?xml version="1.0" encoding="UTF-8" standalone="no"?>
<!DOCTYPE svg PUBLIC "-//W3C//DTD SVG 1.1//EN" "http://www.w3.org/Graphics/SVG/1.1/DTD/svg11.dtd">
<svg width="100%" height="100%" viewBox="0 0 128 128" version="1.1" xmlns="http://www.w3.org/2000/svg" xmlns:xlink="http://www.w3.org/1999/xlink" xml:space="preserve" xmlns:serif="http://www.serif.com/" style="fill-rule:evenodd;clip-rule:evenodd;stroke-linejoin:round;stroke-miterlimit:1.5;">
    <rect id="Artboard1" x="0" y="0" width="128" height="128" style="fill:none;"/>
    <g id="Artboard11" serif:id="Artboard1">
        <g id="email-icon" serif:id="email icon" transform="matrix(1.14286,0,0,1.22426,27.4286,24.993)">
            <g id="Envelope">
                <g id="main-body" serif:id="main body" transform="matrix(1,0,0,1.21386,0,-14.8315)">
                    <path d="M60,33.638L4,33.638L4,53.409C4,57.047 7.585,60 12,60L56,60C58.208,60 60,58.523 60,56.705L60,33.638Z" style="fill:rgb(255,205,80);"/>
                </g>
                <g id="main-body1" serif:id="main body" transform="matrix(1,0,0,1.21386,0,-14.8315)">
                    <path d="M60,33.638L4,33.638L4,53.409C4,57.047 7.585,60 12,60L56,60C58.208,60 60,58.523 60,56.705L60,33.638Z" style="fill:rgb(255,205,80);"/>
                </g>
                <g id="throat" transform="matrix(1,0,0,-1.05956,0,53.5487)">
                    <path d="M32,7.124L60,26L4,26L32,7.124Z" style="fill:rgb(216,126,53);"/>
                </g>
                <g id="top-flap" serif:id="top flap" transform="matrix(1,0,0,1.05956,0,-1.54869)">
                    <path d="M32,7.124L60,26L4,26L32,7.124Z" style="fill:rgb(255,168,82);"/>
                </g>
            </g>
            <g id="masked-letter" serif:id="masked letter" transform="matrix(1,0,0,-1.05956,0,53.5487)">
                <path d="M32,7.124L60,26L60,45.137L4,45.009L4,26L32,7.124Z" style="fill:none;"/>
                <clipPath id="_clip1">
                    <path d="M32,7.124L60,26L60,45.137L4,45.009L4,26L32,7.124Z"/>
                </clipPath>
                <g clip-path="url(#_clip1)">
                    <g id="letter">
                        <g id="main-body2" serif:id="main body" transform="matrix(1,0,0,-0.943784,0,50.5384)">
                            <g transform="matrix(0.857143,0,0,1.0852,4.57143,1.29412)">
                                <path d="M60,22.766L46,11.708L8.667,11.708C6.091,11.708 4,13.36 4,15.394L4,41.196L60,41.196L60,22.766Z" style="fill:rgb(255,243,222);"/>
                            </g>
                            <g transform="matrix(0.904153,0,0,0.8863,5.36743,1.5918)">
                                <path d="M56,27.539L42.728,14L42.728,23.026C42.728,25.517 44.71,27.539 47.152,27.539L56,27.539Z" style="fill:rgb(244,212,174);"/>
                            </g>
                        </g>
                        <g id="text-lines" serif:id="text lines" transform="matrix(1.10017,0,0,-0.988559,1.34505,52.4637)">
                            <g transform="matrix(1.06157,0,0,0.971693,-1.37872,-1.26402)">
                                <path d="M24.119,26.515C24.119,26.231 23.903,26 23.638,26L13.295,26C13.03,26 12.815,26.231 12.815,26.515L12.815,27.544C12.815,27.828 13.03,28.058 13.295,28.058L23.638,28.058C23.903,28.058 24.119,27.828 24.119,27.544L24.119,26.515Z" style="fill:rgb(94,101,114);"/>
                            </g>
                            <g transform="matrix(1.61819,0,0,1,-7.55736,0)">
                                <path d="M32,30.5C32,30.224 31.859,30 31.685,30L12.54,30C12.366,30 12.225,30.224 12.225,30.5L12.225,31.5C12.225,31.776 12.366,32 12.54,32L31.685,32C31.859,32 32,31.776 32,31.5L32,30.5Z" style="fill:rgb(94,101,114);"/>
                            </g>
                            <g transform="matrix(1.61819,0,0,1,-7.55736,11)">
                                <path d="M32,30.5C32,30.224 31.859,30 31.685,30L12.54,30C12.366,30 12.225,30.224 12.225,30.5L12.225,31.5C12.225,31.776 12.366,32 12.54,32L31.685,32C31.859,32 32,31.776 32,31.5L32,30.5Z" style="fill:rgb(94,101,114);"/>
                            </g>
                            <g transform="matrix(1.61819,0,0,1,-7.55736,5.47019)">
                                <path d="M32,30.5C32,30.224 31.859,30 31.685,30L12.54,30C12.366,30 12.225,30.224 12.225,30.5L12.225,31.5C12.225,31.776 12.366,32 12.54,32L31.685,32C31.859,32 32,31.776 32,31.5L32,30.5Z" style="fill:rgb(94,101,114);"/>
                            </g>
                        </g>
                        <path id="shadow" d="M4,26L32,7.124L60,26" style="fill:none;stroke:rgb(94,101,114);stroke-opacity:0.31;stroke-width:3.27px;"/>
                        <g id="masked-shadow" serif:id="masked shadow" transform="matrix(1,0,0,-1.14562,0,64.5361)">
                            <path d="M60,33.638L4,33.638L4,53.409C4,57.047 7.585,60 12,60L56,60C58.208,60 60,58.523 60,56.705L60,33.638Z" style="fill:none;"/>
                        </g>
                    </g>
                </g>
            </g>
        </g>
    </g>
</svg>
